<?xml version="1.0" standalone="no"?>
<!DOCTYPE svg PUBLIC "-//W3C//DTD SVG 20010904//EN"
 "http://www.w3.org/TR/2001/REC-SVG-20010904/DTD/svg10.dtd">
<svg version="1.0" xmlns="http://www.w3.org/2000/svg"
 width="1780.000000pt" height="394.000000pt" viewBox="0 0 1780.000000 394.000000"
 preserveAspectRatio="xMidYMid meet">

<g transform="translate(0.000000,394.000000) scale(0.100000,-0.100000)"
fill="#000000" stroke="none">
<path d="M1379 3919 c-206 -12 -401 -58 -564 -133 -218 -101 -434 -323 -524
-539 -117 -281 -116 -631 3 -865 41 -81 114 -169 193 -232 155 -125 377 -207
870 -319 628 -144 734 -175 905 -263 193 -99 268 -230 268 -468 0 -148 -27
-236 -105 -342 -119 -162 -394 -274 -725 -296 -337 -23 -612 34 -811 169 -183
124 -307 358 -334 632 l-7 67 -234 0 -234 0 0 -66 c0 -91 26 -257 56 -361 113
-389 428 -684 859 -802 325 -90 756 -90 1102 -1 250 65 483 179 627 307 194
173 296 436 296 760 0 269 -73 478 -223 639 -88 95 -169 155 -281 209 -145 71
-279 109 -733 214 -450 104 -622 149 -766 201 -233 85 -337 221 -337 445 0
157 58 293 175 411 155 155 361 213 719 201 510 -18 768 -209 850 -629 l21
-108 234 0 234 0 -6 108 c-11 234 -71 414 -195 589 -135 192 -450 371 -772
437 -164 33 -366 46 -561 35z"/>
<path d="M3360 3818 c0 -7 215 -836 478 -1843 l479 -1830 264 -3 264 -2 425
1521 c234 836 427 1522 430 1524 3 2 178 -619 389 -1379 212 -759 402 -1445
424 -1523 l40 -143 263 0 264 0 6 27 c4 16 121 460 259 988 l252 960 482 3
481 2 0 -990 0 -990 1365 0 1365 0 0 220 0 220 -1115 0 -1115 0 0 748 c0 411
-3 757 -6 770 l-6 22 1476 0 1476 0 0 -990 0 -990 1365 0 1365 0 0 220 0 220
-1120 0 -1120 0 0 770 0 770 243 -1 c133 0 550 -6 927 -14 638 -12 691 -14
779 -34 109 -25 113 -27 211 -99 101 -75 148 -120 313 -300 157 -171 275 -275
390 -342 l76 -45 1 -572 0 -573 250 0 250 0 0 444 0 444 378 5 c417 6 467 11
652 73 363 121 612 376 734 749 87 266 105 642 46 950 -99 510 -433 854 -929
955 -93 19 -137 20 -740 20 l-641 0 0 -225 0 -225 -53 -26 c-161 -82 -316
-224 -432 -399 -44 -66 -109 -149 -145 -185 -139 -141 -308 -227 -460 -236
-25 -1 -451 -6 -947 -10 l-903 -7 0 456 0 457 1100 0 1100 0 0 225 0 225
-1345 0 -1345 0 0 -680 0 -680 -1470 0 -1470 0 -2 -172 -3 -173 -242 -3 -243
-2 0 175 0 175 240 0 240 0 0 455 0 455 1100 0 1100 0 0 225 0 225 -1345 0
-1345 0 0 -680 0 -680 -435 0 c-239 0 -435 1 -435 3 1 1 81 306 179 677 l178
675 -270 3 c-149 1 -272 0 -275 -2 -3 -4 -652 -2792 -687 -2954 -4 -18 -9 -31
-12 -29 -2 3 -190 675 -417 1493 l-414 1489 -273 3 -274 2 -415 -1496 c-273
-986 -417 -1489 -422 -1477 -4 10 -157 662 -339 1448 -181 787 -335 1451 -341
1478 l-11 47 -269 0 c-208 0 -268 -3 -268 -12z m12968 -419 c26 -11 75 -35
109 -52 57 -29 63 -35 63 -63 0 -26 -11 -42 -55 -82 -57 -52 -213 -135 -275
-146 -31 -6 -39 -2 -92 51 l-59 58 -97 -1 c-122 0 -247 -35 -381 -105 -52 -27
-95 -48 -97 -47 -5 6 -9 317 -3 322 12 13 162 45 231 51 118 9 358 12 428 5
51 -5 74 -3 105 11 53 23 67 23 123 -2z m491 -414 c30 -58 59 -105 66 -105 6
0 47 11 91 24 43 13 82 22 86 20 3 -2 0 -30 -8 -62 -7 -31 -13 -63 -14 -70 0
-7 -18 -20 -41 -29 -39 -15 -41 -18 -36 -50 5 -26 1 -38 -16 -54 l-22 -20 -5
22 c-5 19 -25 28 -129 58 l-123 35 6 75 c4 41 8 78 9 82 1 4 -2 8 -8 9 -10 2
-39 -169 -31 -177 2 -2 60 -21 127 -42 l124 -37 -3 -29 c-2 -20 -17 -43 -42
-66 -22 -20 -40 -41 -40 -45 0 -5 54 -40 120 -79 66 -38 120 -72 120 -75 0 -3
-7 -15 -15 -26 -24 -32 -18 -42 48 -75 34 -17 64 -36 66 -41 2 -5 25 -36 52
-69 56 -67 62 -59 -61 -79 -36 -6 -77 -13 -91 -16 -26 -5 -27 -2 -44 68 -24
99 -27 104 -87 124 -29 9 -183 63 -342 120 -159 57 -295 104 -303 104 -8 0
-36 -20 -62 -45 -32 -30 -57 -45 -75 -45 -16 0 -25 -4 -21 -10 14 -23 61 -10
96 26 18 20 41 40 50 45 12 6 114 -26 355 -112 186 -66 340 -122 342 -124 2
-2 13 -39 24 -82 11 -43 23 -82 28 -87 4 -4 53 -1 109 9 55 9 106 15 113 13 7
-3 -12 -24 -42 -47 l-55 -43 -5 -72 -5 -71 -151 -3 -151 -3 -7 47 c-3 26 -6
68 -6 93 l0 47 -236 49 c-218 46 -238 52 -270 82 -22 20 -53 35 -82 41 -26 6
-129 27 -229 48 -101 20 -183 40 -182 43 0 3 43 39 95 79 l94 73 0 74 0 75 98
64 c130 86 163 120 200 207 l30 72 78 27 c44 15 135 53 204 84 69 30 132 56
140 56 9 0 37 -42 69 -105z m-476 3 l42 -21 -32 -11 c-41 -14 -45 -19 -73 -90
-13 -33 -37 -75 -53 -93 -28 -32 -147 -123 -161 -123 -9 0 -7 213 2 227 8 12
210 132 225 132 4 1 27 -9 50 -21z m-913 -713 c0 -459 -3 -705 -10 -705 -16 0
-78 90 -120 176 -47 95 -90 253 -90 330 0 50 -3 55 -45 95 -41 39 -45 46 -45
90 0 66 12 92 67 145 l46 46 4 101 c7 184 43 288 129 375 29 28 55 52 58 52 3
0 6 -317 6 -705z m1915 268 c-2 -6 -47 -73 -101 -147 l-96 -135 -49 25 c-27
13 -49 27 -49 30 0 3 7 19 16 35 8 17 14 32 12 33 -2 2 -56 34 -120 72 -65 37
-118 71 -117 74 0 3 34 34 75 70 71 61 75 67 70 98 -4 30 -2 35 26 47 31 12
34 11 185 -89 85 -56 151 -106 148 -113z m-4855 -243 c0 -168 0 -170 -22 -175
-13 -3 -122 -4 -243 -3 l-220 3 -3 173 -2 172 245 0 245 0 0 -170z m3543 -95
c120 -25 225 -50 235 -56 9 -6 35 -34 57 -61 22 -28 84 -83 137 -123 l97 -72
-30 -41 c-16 -22 -62 -65 -102 -94 -39 -29 -100 -79 -135 -111 l-64 -57 -38
30 c-20 16 -89 83 -152 149 -102 105 -119 129 -148 198 -51 121 -100 283 -86
283 7 0 110 -20 229 -45z m553 -165 c105 -22 194 -40 197 -40 4 0 7 -29 7 -64
0 -35 3 -77 6 -94 l6 -31 112 -3 111 -3 -164 -55 -165 -55 -20 -62 c-12 -34
-24 -64 -27 -68 -9 -8 -191 15 -204 26 -6 4 -25 28 -43 53 l-32 44 62 46 61
45 38 -22 c37 -23 41 -23 131 -11 51 7 95 13 98 13 2 1 0 5 -5 10 -6 6 -42 6
-94 -1 -74 -10 -88 -9 -117 7 l-33 18 40 51 39 51 -26 20 c-136 102 -204 157
-204 166 0 6 8 8 18 5 9 -3 103 -23 208 -46z m-257 -510 c184 -56 191 -60 191
-118 0 -76 -59 -145 -139 -163 -60 -13 -620 -20 -730 -9 -53 6 -122 16 -153
22 l-58 12 0 133 c0 73 4 133 9 133 5 0 31 -18 59 -39 77 -61 118 -77 242 -95
244 -34 321 -12 371 109 28 68 29 68 208 15z"/>
<path d="M16460 2728 c0 -24 -3 -66 -6 -95 -7 -52 -6 -52 44 -105 28 -29 54
-49 58 -45 4 4 -12 28 -37 53 l-44 45 3 94 c3 63 0 95 -7 95 -6 0 -11 -19 -11
-42z"/>
</g>
</svg>
